<svg width="18" height="18" viewBox="0 0 18 18" fill="none" xmlns="http://www.w3.org/2000/svg">
<path d="M17 6C16.7167 6 16.4792 5.90417 16.2875 5.7125C16.0958 5.52083 16 5.28333 16 5C16 4.71667 16.0958 4.47917 16.2875 4.2875C16.4792 4.09583 16.7167 4 17 4C17.2833 4 17.5208 4.09583 17.7125 4.2875C17.9042 4.47917 18 4.71667 18 5C18 5.28333 17.9042 5.52083 17.7125 5.7125C17.5208 5.90417 17.2833 6 17 6ZM17 10C16.7167 10 16.4792 9.90417 16.2875 9.7125C16.0958 9.52083 16 9.28333 16 9C16 8.71667 16.0958 8.47917 16.2875 8.2875C16.4792 8.09583 16.7167 8 17 8C17.2833 8 17.5208 8.09583 17.7125 8.2875C17.9042 8.47917 18 8.71667 18 9C18 9.28333 17.9042 9.52083 17.7125 9.7125C17.5208 9.90417 17.2833 10 17 10ZM17 14C16.7167 14 16.4792 13.9042 16.2875 13.7125C16.0958 13.5208 16 13.2833 16 13C16 12.7167 16.0958 12.4792 16.2875 12.2875C16.4792 12.0958 16.7167 12 17 12C17.2833 12 17.5208 12.0958 17.7125 12.2875C17.9042 12.4792 18 12.7167 18 13C18 13.2833 17.9042 13.5208 17.7125 13.7125C17.5208 13.9042 17.2833 14 17 14ZM5 18C4.71667 18 4.47917 17.9042 4.2875 17.7125C4.09583 17.5208 4 17.2833 4 17C4 16.7167 4.09583 16.4792 4.2875 16.2875C4.47917 16.0958 4.71667 16 5 16C5.28333 16 5.52083 16.0958 5.7125 16.2875C5.90417 16.4792 6 16.7167 6 17C6 17.2833 5.90417 17.5208 5.7125 17.7125C5.52083 17.9042 5.28333 18 5 18ZM9 18C8.71667 18 8.47917 17.9042 8.2875 17.7125C8.09583 17.5208 8 17.2833 8 17C8 16.7167 8.09583 16.4792 8.2875 16.2875C8.47917 16.0958 8.71667 16 9 16C9.28333 16 9.52083 16.0958 9.7125 16.2875C9.90417 16.4792 10 16.7167 10 17C10 17.2833 9.90417 17.5208 9.7125 17.7125C9.52083 17.9042 9.28333 18 9 18ZM13 18C12.7167 18 12.4792 17.9042 12.2875 17.7125C12.0958 17.5208 12 17.2833 12 17C12 16.7167 12.0958 16.4792 12.2875 16.2875C12.4792 16.0958 12.7167 16 13 16C13.2833 16 13.5208 16.0958 13.7125 16.2875C13.9042 16.4792 14 16.7167 14 17C14 17.2833 13.9042 17.5208 13.7125 17.7125C13.5208 17.9042 13.2833 18 13 18ZM17 18C16.7167 18 16.4792 17.9042 16.2875 17.7125C16.0958 17.5208 16 17.2833 16 17C16 16.7167 16.0958 16.4792 16.2875 16.2875C16.4792 16.0958 16.7167 16 17 16C17.2833 16 17.5208 16.0958 17.7125 16.2875C17.9042 16.4792 18 16.7167 18 17C18 17.2833 17.9042 17.5208 17.7125 17.7125C17.5208 17.9042 17.2833 18 17 18ZM0 17V2C0 1.45 0.195833 0.979167 0.5875 0.5875C0.979167 0.195833 1.45 0 2 0H17C17.2833 0 17.5208 0.0958333 17.7125 0.2875C17.9042 0.479167 18 0.716667 18 1C18 1.28333 17.9042 1.52083 17.7125 1.7125C17.5208 1.90417 17.2833 2 17 2H2V17C2 17.2833 1.90417 17.5208 1.7125 17.7125C1.52083 17.9042 1.28333 18 1 18C0.716667 18 0.479167 17.9042 0.2875 17.7125C0.0958333 17.5208 0 17.2833 0 17Z" fill="#BB8B05"/>
</svg>
