<svg width="20" height="15" viewBox="0 0 20 15" fill="none" xmlns="http://www.w3.org/2000/svg">
<path d="M15.7417 0.292969C16.1322 -0.0974864 16.7652 -0.0973794 17.1558 0.292969C17.5463 0.683489 17.5463 1.31651 17.1558 1.70703L11.3882 7.47363L16.936 13.0215C17.3261 13.412 17.3263 14.0452 16.936 14.4355C16.5455 14.8261 15.9115 14.8261 15.521 14.4355L9.97412 8.88867L4.42822 14.4355C4.0378 14.8259 3.40468 14.8257 3.01416 14.4355C2.62367 14.0451 2.62373 13.412 3.01416 13.0215L8.56006 7.47461L2.79346 1.70703C2.40306 1.3165 2.40298 0.683451 2.79346 0.292969C3.18394 -0.0974567 3.817 -0.0974091 4.20752 0.292969L9.97412 6.05957L15.7417 0.292969Z" fill="#212121"/>
</svg>
