<svg width="36" height="43" viewBox="0 0 36 43" fill="none" xmlns="http://www.w3.org/2000/svg">
<path d="M7.42762 2.4907L9.96279 0L25.2183 15.2555C25.9003 15.9375 26.2413 16.7826 26.2413 17.7907C26.2413 18.7988 25.9003 19.6439 25.2183 20.3259L16.7677 28.7765C16.0858 29.4584 15.2407 29.7994 14.2326 29.7994C13.2244 29.7994 12.3794 29.4584 11.6974 28.7765L3.2468 20.3259C2.56483 19.6439 2.22384 18.7988 2.22384 17.7907C2.22384 16.7826 2.56483 15.9375 3.2468 15.2555L11.6974 6.76047L7.42762 2.4907ZM14.2326 9.29564L5.7375 17.7907H22.7276L14.2326 9.29564ZM30.2442 30.2442C29.2657 30.2442 28.4281 29.8958 27.7313 29.199C27.0345 28.5022 26.686 27.6645 26.686 26.686C26.686 26.0634 26.8714 25.3962 27.242 24.6846C27.6126 23.973 28.0204 23.3058 28.4651 22.6831C28.732 22.3273 29.0137 21.9567 29.3102 21.5712C29.6067 21.1858 29.918 20.8151 30.2442 20.4593C30.5704 20.8151 30.8817 21.1858 31.1782 21.5712C31.4747 21.9567 31.7564 22.3273 32.0233 22.6831C32.468 23.3058 32.8757 23.973 33.2464 24.6846C33.617 25.3962 33.8023 26.0634 33.8023 26.686C33.8023 27.6645 33.4539 28.5022 32.7571 29.199C32.0603 29.8958 31.2227 30.2442 30.2442 30.2442ZM0 42.6977V35.5814H35.5814V42.6977H0Z" fill="#757575"/>
</svg>
