<svg width="16" height="20" viewBox="0 0 16 20" fill="none" xmlns="http://www.w3.org/2000/svg">
<path d="M8 19.75C7.88333 19.75 7.775 19.7417 7.675 19.725C7.575 19.7083 7.475 19.6833 7.375 19.65C5.125 18.9 3.33333 17.5125 2 15.4875C0.666667 13.4625 0 11.2833 0 8.95V4.225C0 3.80833 0.120833 3.43333 0.3625 3.1C0.604167 2.76667 0.916667 2.525 1.3 2.375L7.3 0.125C7.53333 0.0416667 7.76667 0 8 0C8.23333 0 8.46667 0.0416667 8.7 0.125L14.7 2.375C15.0833 2.525 15.3958 2.76667 15.6375 3.1C15.8792 3.43333 16 3.80833 16 4.225V8.95C16 11.2833 15.3333 13.4625 14 15.4875C12.6667 17.5125 10.875 18.9 8.625 19.65C8.525 19.6833 8.425 19.7083 8.325 19.725C8.225 19.7417 8.11667 19.75 8 19.75ZM8 17.75C9.73333 17.2 11.1667 16.1 12.3 14.45C13.4333 12.8 14 10.9667 14 8.95V4.225L8 1.975L2 4.225V8.95C2 10.9667 2.56667 12.8 3.7 14.45C4.83333 16.1 6.26667 17.2 8 17.75Z" fill="#BB8B05"/>
</svg>
