<svg width="29" height="37" viewBox="0 0 29 37" fill="none" xmlns="http://www.w3.org/2000/svg">
<path d="M18.9767 28.9169C19.7298 28.9169 20.3699 28.6534 20.897 28.1262C21.4241 27.5991 21.6877 26.959 21.6877 26.206C21.6877 25.4529 21.4241 24.8128 20.897 24.2857C20.3699 23.7586 19.7298 23.495 18.9767 23.495C18.2237 23.495 17.5836 23.7586 17.0565 24.2857C16.5293 24.8128 16.2658 25.4529 16.2658 26.206C16.2658 26.959 16.5293 27.5991 17.0565 28.1262C17.5836 28.6534 18.2237 28.9169 18.9767 28.9169ZM9.84983 28.8266L21.5973 17.0791L19.0671 14.5488L7.3196 26.2963L9.84983 28.8266ZM9.9402 19.8804C10.6932 19.8804 11.3333 19.6168 11.8605 19.0897C12.3876 18.5626 12.6512 17.9225 12.6512 17.1694C12.6512 16.4164 12.3876 15.7763 11.8605 15.2492C11.3333 14.722 10.6932 14.4585 9.9402 14.4585C9.18715 14.4585 8.54707 14.722 8.01993 15.2492C7.4928 15.7763 7.22924 16.4164 7.22924 17.1694C7.22924 17.9225 7.4928 18.5626 8.01993 19.0897C8.54707 19.6168 9.18715 19.8804 9.9402 19.8804ZM14.4585 36.1462C10.3318 36.1462 6.89037 34.7305 4.13422 31.899C1.37807 29.0676 0 25.5433 0 21.3262C0 18.3141 1.19734 15.0383 3.59203 11.499C5.98671 7.95969 9.60886 4.12669 14.4585 0C19.3081 4.12669 22.9302 7.95969 25.3249 11.499C27.7196 15.0383 28.9169 18.3141 28.9169 21.3262C28.9169 25.5433 27.5389 29.0676 24.7827 31.899C22.0266 34.7305 18.5852 36.1462 14.4585 36.1462ZM14.4585 32.5316C17.5911 32.5316 20.1816 31.4698 22.2299 29.3462C24.2782 27.2226 25.3023 24.5493 25.3023 21.3262C25.3023 19.1274 24.3911 16.6423 22.5688 13.8711C20.7464 11.0999 18.043 8.07265 14.4585 4.78937C10.874 8.07265 8.17054 11.0999 6.34817 13.8711C4.5258 16.6423 3.61462 19.1274 3.61462 21.3262C3.61462 24.5493 4.63876 27.2226 6.68704 29.3462C8.73533 31.4698 11.3258 32.5316 14.4585 32.5316Z" fill="#757575"/>
</svg>
