<svg width="19" height="19" viewBox="0 0 19 19" fill="none" xmlns="http://www.w3.org/2000/svg">
<path d="M8.00167 17.7559C7.81833 17.5725 7.71417 17.3517 7.68917 17.0934C7.66417 16.835 7.76833 16.5892 8.00167 16.3559L16.3267 8.03088C16.56 7.79755 16.8058 7.69338 17.0642 7.71838C17.3225 7.74338 17.5433 7.84755 17.7267 8.03088C17.9433 8.24755 18.0433 8.48922 18.0267 8.75588C18.01 9.02255 17.9017 9.25588 17.7017 9.45588L9.40167 17.7559C9.20167 17.9559 8.96833 18.0559 8.70167 18.0559C8.435 18.0559 8.20167 17.9559 8.00167 17.7559ZM15.2267 18.0559C14.9933 18.0559 14.835 17.9559 14.7517 17.7559C14.6683 17.5559 14.71 17.3725 14.8767 17.2059L17.1767 14.9059C17.3433 14.7392 17.5267 14.6975 17.7267 14.7809C17.9267 14.8642 18.0267 15.0225 18.0267 15.2559V17.0559C18.0267 17.3392 17.9308 17.5767 17.7392 17.7684C17.5475 17.9601 17.31 18.0559 17.0267 18.0559H15.2267ZM0.301667 17.7809C0.118333 17.5975 0.0183333 17.3725 0.00166667 17.1059C-0.015 16.8392 0.0933333 16.5892 0.326667 16.3559L16.3517 0.330882C16.6017 0.0808824 16.86 -0.027451 17.1267 0.00588235C17.3933 0.0392157 17.6183 0.147549 17.8017 0.330882C17.985 0.514216 18.085 0.739216 18.1017 1.00588C18.1183 1.27255 18.0017 1.52255 17.7517 1.75588L1.70167 17.7809C1.46833 18.0142 1.2225 18.1184 0.964167 18.0934C0.705833 18.0684 0.485 17.9642 0.301667 17.7809ZM0.301667 10.0809C0.118333 9.89755 0.0183333 9.67255 0.00166667 9.40588C-0.015 9.13922 0.0933333 8.88922 0.326667 8.65588L8.62667 0.355882C8.86 0.122549 9.10583 0.0183824 9.36417 0.0433824C9.6225 0.0683824 9.84333 0.172549 10.0267 0.355882C10.21 0.539216 10.3142 0.760049 10.3392 1.01838C10.3642 1.27672 10.26 1.52255 10.0267 1.75588L1.70167 10.0809C1.46833 10.3142 1.2225 10.4184 0.964167 10.3934C0.705833 10.3684 0.485 10.2642 0.301667 10.0809ZM0.0266667 2.85588V1.05588C0.0266667 0.772549 0.1225 0.535049 0.314167 0.343382C0.505833 0.151716 0.743333 0.0558824 1.02667 0.0558824H2.82667C3.06 0.0558824 3.21833 0.155882 3.30167 0.355882C3.385 0.555882 3.34333 0.739216 3.17667 0.905882L0.876667 3.20588C0.71 3.37255 0.526667 3.41422 0.326667 3.33088C0.126667 3.24755 0.0266667 3.08922 0.0266667 2.85588Z" fill="#BB8B05"/>
</svg>
