<svg width="20" height="20" viewBox="0 0 20 20" fill="none" xmlns="http://www.w3.org/2000/svg">
<path d="M14.0267 16.0559H12.0267C11.7433 16.0559 11.5058 15.9601 11.3142 15.7684C11.1225 15.5767 11.0267 15.3392 11.0267 15.0559C11.0267 14.7725 11.1225 14.5351 11.3142 14.3434C11.5058 14.1517 11.7433 14.0559 12.0267 14.0559H14.0267V12.0559C14.0267 11.7725 14.1225 11.535 14.3142 11.3434C14.5058 11.1517 14.7433 11.0559 15.0267 11.0559C15.31 11.0559 15.5475 11.1517 15.7392 11.3434C15.9308 11.535 16.0267 11.7725 16.0267 12.0559V14.0559H18.0267C18.31 14.0559 18.5475 14.1517 18.7392 14.3434C18.9308 14.5351 19.0267 14.7725 19.0267 15.0559C19.0267 15.3392 18.9308 15.5767 18.7392 15.7684C18.5475 15.9601 18.31 16.0559 18.0267 16.0559H16.0267V18.0559C16.0267 18.3392 15.9308 18.5767 15.7392 18.7684C15.5475 18.9601 15.31 19.0559 15.0267 19.0559C14.7433 19.0559 14.5058 18.9601 14.3142 18.7684C14.1225 18.5767 14.0267 18.3392 14.0267 18.0559V16.0559ZM0.301667 17.7809C0.118333 17.5976 0.0183333 17.3726 0.00166667 17.1059C-0.015 16.8392 0.0933333 16.5892 0.326667 16.3559L16.3517 0.330882C16.6017 0.0808824 16.86 -0.027451 17.1267 0.00588235C17.3933 0.0392157 17.6183 0.147549 17.8017 0.330882C17.985 0.514216 18.085 0.739216 18.1017 1.00588C18.1183 1.27255 18.0017 1.52255 17.7517 1.75588L1.70167 17.7809C1.46833 18.0142 1.2225 18.1184 0.964167 18.0934C0.705833 18.0684 0.485 17.9642 0.301667 17.7809ZM0.301667 10.0809C0.118333 9.89755 0.0183333 9.67255 0.00166667 9.40588C-0.015 9.13922 0.0933333 8.88922 0.326667 8.65588L8.62667 0.355882C8.86 0.122549 9.10583 0.0183824 9.36417 0.0433824C9.6225 0.0683824 9.84333 0.172549 10.0267 0.355882C10.21 0.539216 10.3142 0.760049 10.3392 1.01838C10.3642 1.27672 10.26 1.52255 10.0267 1.75588L1.70167 10.0809C1.46833 10.3142 1.2225 10.4184 0.964167 10.3934C0.705833 10.3684 0.485 10.2642 0.301667 10.0809ZM0.876667 3.20588C0.71 3.37255 0.526667 3.41422 0.326667 3.33088C0.126667 3.24755 0.0266667 3.08922 0.0266667 2.85588V1.05588C0.0266667 0.772549 0.1225 0.535049 0.314167 0.343382C0.505833 0.151716 0.743333 0.0558824 1.02667 0.0558824H2.82667C3.06 0.0558824 3.21833 0.155882 3.30167 0.355882C3.385 0.555882 3.34333 0.739216 3.17667 0.905882L0.876667 3.20588ZM17.0267 9.73088C16.7433 9.73088 16.51 9.63505 16.3267 9.44338C16.1433 9.25172 16.0517 9.01422 16.0517 8.73088C16.0517 8.44755 16.1433 8.21422 16.3267 8.03088C16.51 7.84755 16.7433 7.75588 17.0267 7.75588C17.31 7.75588 17.5475 7.84755 17.7392 8.03088C17.9308 8.21422 18.0267 8.44755 18.0267 8.73088C18.0267 9.01422 17.9308 9.25172 17.7392 9.44338C17.5475 9.63505 17.31 9.73088 17.0267 9.73088ZM8.72667 18.0559C8.44333 18.0559 8.21 17.9601 8.02667 17.7684C7.84333 17.5767 7.75167 17.3392 7.75167 17.0559C7.75167 16.7726 7.84333 16.5392 8.02667 16.3559C8.21 16.1726 8.44333 16.0809 8.72667 16.0809C9.01 16.0809 9.2475 16.1726 9.43917 16.3559C9.63083 16.5392 9.72667 16.7726 9.72667 17.0559C9.72667 17.3392 9.63083 17.5767 9.43917 17.7684C9.2475 17.9601 9.01 18.0559 8.72667 18.0559Z" fill="#BB8B05"/>
</svg>
