<svg width="37" height="37" viewBox="0 0 37 37" fill="none" xmlns="http://www.w3.org/2000/svg">
<path d="M0 34.3389V27.1096C0 26.5976 0.1732 26.1683 0.519601 25.8219C0.866002 25.4755 1.29524 25.3023 1.80731 25.3023H9.03654C9.54862 25.3023 9.97785 25.4755 10.3243 25.8219C10.6707 26.1683 10.8439 26.5976 10.8439 27.1096V34.3389C10.8439 34.8509 10.6707 35.2802 10.3243 35.6266C9.97785 35.973 9.54862 36.1462 9.03654 36.1462H1.80731C1.29524 36.1462 0.866002 35.973 0.519601 35.6266C0.1732 35.2802 0 34.8509 0 34.3389ZM12.6512 34.3389V27.1096C12.6512 26.5976 12.8244 26.1683 13.1708 25.8219C13.5172 25.4755 13.9464 25.3023 14.4585 25.3023H21.6877C22.1998 25.3023 22.629 25.4755 22.9754 25.8219C23.3218 26.1683 23.495 26.5976 23.495 27.1096V34.3389C23.495 34.8509 23.3218 35.2802 22.9754 35.6266C22.629 35.973 22.1998 36.1462 21.6877 36.1462H14.4585C13.9464 36.1462 13.5172 35.973 13.1708 35.6266C12.8244 35.2802 12.6512 34.8509 12.6512 34.3389ZM25.3023 34.3389V27.1096C25.3023 26.5976 25.4755 26.1683 25.8219 25.8219C26.1683 25.4755 26.5976 25.3023 27.1096 25.3023H34.3389C34.8509 25.3023 35.2802 25.4755 35.6266 25.8219C35.973 26.1683 36.1462 26.5976 36.1462 27.1096V34.3389C36.1462 34.8509 35.973 35.2802 35.6266 35.6266C35.2802 35.973 34.8509 36.1462 34.3389 36.1462H27.1096C26.5976 36.1462 26.1683 35.973 25.8219 35.6266C25.4755 35.2802 25.3023 34.8509 25.3023 34.3389ZM0 21.6877V14.4585C0 13.9464 0.1732 13.5172 0.519601 13.1708C0.866002 12.8244 1.29524 12.6512 1.80731 12.6512H9.03654C9.54862 12.6512 9.97785 12.8244 10.3243 13.1708C10.6707 13.5172 10.8439 13.9464 10.8439 14.4585V21.6877C10.8439 22.1998 10.6707 22.629 10.3243 22.9754C9.97785 23.3218 9.54862 23.495 9.03654 23.495H1.80731C1.29524 23.495 0.866002 23.3218 0.519601 22.9754C0.1732 22.629 0 22.1998 0 21.6877ZM12.6512 21.6877V14.4585C12.6512 13.9464 12.8244 13.5172 13.1708 13.1708C13.5172 12.8244 13.9464 12.6512 14.4585 12.6512H21.6877C22.1998 12.6512 22.629 12.8244 22.9754 13.1708C23.3218 13.5172 23.495 13.9464 23.495 14.4585V21.6877C23.495 22.1998 23.3218 22.629 22.9754 22.9754C22.629 23.3218 22.1998 23.495 21.6877 23.495H14.4585C13.9464 23.495 13.5172 23.3218 13.1708 22.9754C12.8244 22.629 12.6512 22.1998 12.6512 21.6877ZM25.3023 21.6877V14.4585C25.3023 13.9464 25.4755 13.5172 25.8219 13.1708C26.1683 12.8244 26.5976 12.6512 27.1096 12.6512H34.3389C34.8509 12.6512 35.2802 12.8244 35.6266 13.1708C35.973 13.5172 36.1462 13.9464 36.1462 14.4585V21.6877C36.1462 22.1998 35.973 22.629 35.6266 22.9754C35.2802 23.3218 34.8509 23.495 34.3389 23.495H27.1096C26.5976 23.495 26.1683 23.3218 25.8219 22.9754C25.4755 22.629 25.3023 22.1998 25.3023 21.6877ZM0 9.03654V1.80731C0 1.29524 0.1732 0.866002 0.519601 0.519601C0.866002 0.1732 1.29524 0 1.80731 0H9.03654C9.54862 0 9.97785 0.1732 10.3243 0.519601C10.6707 0.866002 10.8439 1.29524 10.8439 1.80731V9.03654C10.8439 9.54862 10.6707 9.97785 10.3243 10.3243C9.97785 10.6707 9.54862 10.8439 9.03654 10.8439H1.80731C1.29524 10.8439 0.866002 10.6707 0.519601 10.3243C0.1732 9.97785 0 9.54862 0 9.03654ZM12.6512 9.03654V1.80731C12.6512 1.29524 12.8244 0.866002 13.1708 0.519601C13.5172 0.1732 13.9464 0 14.4585 0H21.6877C22.1998 0 22.629 0.1732 22.9754 0.519601C23.3218 0.866002 23.495 1.29524 23.495 1.80731V9.03654C23.495 9.54862 23.3218 9.97785 22.9754 10.3243C22.629 10.6707 22.1998 10.8439 21.6877 10.8439H14.4585C13.9464 10.8439 13.5172 10.6707 13.1708 10.3243C12.8244 9.97785 12.6512 9.54862 12.6512 9.03654ZM25.3023 9.03654V1.80731C25.3023 1.29524 25.4755 0.866002 25.8219 0.519601C26.1683 0.1732 26.5976 0 27.1096 0H34.3389C34.8509 0 35.2802 0.1732 35.6266 0.519601C35.973 0.866002 36.1462 1.29524 36.1462 1.80731V9.03654C36.1462 9.54862 35.973 9.97785 35.6266 10.3243C35.2802 10.6707 34.8509 10.8439 34.3389 10.8439H27.1096C26.5976 10.8439 26.1683 10.6707 25.8219 10.3243C25.4755 9.97785 25.3023 9.54862 25.3023 9.03654ZM3.61462 32.5316H7.22924V28.9169H3.61462V32.5316ZM16.2658 32.5316H19.8804V28.9169H16.2658V32.5316ZM28.9169 32.5316H32.5316V28.9169H28.9169V32.5316ZM3.61462 19.8804H7.22924V16.2658H3.61462V19.8804ZM16.2658 19.8804H19.8804V16.2658H16.2658V19.8804ZM28.9169 19.8804H32.5316V16.2658H28.9169V19.8804ZM16.2658 7.22924H19.8804V3.61462H16.2658V7.22924ZM28.9169 7.22924H32.5316V3.61462H28.9169V7.22924Z" fill="#757575"/>
</svg>
