<svg width="20" height="20" viewBox="0 0 20 20" fill="none" xmlns="http://www.w3.org/2000/svg">
<path d="M0 19V15C0 14.7167 0.0958333 14.4792 0.2875 14.2875C0.479167 14.0958 0.716667 14 1 14H5C5.28333 14 5.52083 14.0958 5.7125 14.2875C5.90417 14.4792 6 14.7167 6 15V19C6 19.2833 5.90417 19.5208 5.7125 19.7125C5.52083 19.9042 5.28333 20 5 20H1C0.716667 20 0.479167 19.9042 0.2875 19.7125C0.0958333 19.5208 0 19.2833 0 19ZM7 19V15C7 14.7167 7.09583 14.4792 7.2875 14.2875C7.47917 14.0958 7.71667 14 8 14H12C12.2833 14 12.5208 14.0958 12.7125 14.2875C12.9042 14.4792 13 14.7167 13 15V19C13 19.2833 12.9042 19.5208 12.7125 19.7125C12.5208 19.9042 12.2833 20 12 20H8C7.71667 20 7.47917 19.9042 7.2875 19.7125C7.09583 19.5208 7 19.2833 7 19ZM14 19V15C14 14.7167 14.0958 14.4792 14.2875 14.2875C14.4792 14.0958 14.7167 14 15 14H19C19.2833 14 19.5208 14.0958 19.7125 14.2875C19.9042 14.4792 20 14.7167 20 15V19C20 19.2833 19.9042 19.5208 19.7125 19.7125C19.5208 19.9042 19.2833 20 19 20H15C14.7167 20 14.4792 19.9042 14.2875 19.7125C14.0958 19.5208 14 19.2833 14 19ZM0 12V8C0 7.71667 0.0958333 7.47917 0.2875 7.2875C0.479167 7.09583 0.716667 7 1 7H5C5.28333 7 5.52083 7.09583 5.7125 7.2875C5.90417 7.47917 6 7.71667 6 8V12C6 12.2833 5.90417 12.5208 5.7125 12.7125C5.52083 12.9042 5.28333 13 5 13H1C0.716667 13 0.479167 12.9042 0.2875 12.7125C0.0958333 12.5208 0 12.2833 0 12ZM7 12V8C7 7.71667 7.09583 7.47917 7.2875 7.2875C7.47917 7.09583 7.71667 7 8 7H12C12.2833 7 12.5208 7.09583 12.7125 7.2875C12.9042 7.47917 13 7.71667 13 8V12C13 12.2833 12.9042 12.5208 12.7125 12.7125C12.5208 12.9042 12.2833 13 12 13H8C7.71667 13 7.47917 12.9042 7.2875 12.7125C7.09583 12.5208 7 12.2833 7 12ZM14 12V8C14 7.71667 14.0958 7.47917 14.2875 7.2875C14.4792 7.09583 14.7167 7 15 7H19C19.2833 7 19.5208 7.09583 19.7125 7.2875C19.9042 7.47917 20 7.71667 20 8V12C20 12.2833 19.9042 12.5208 19.7125 12.7125C19.5208 12.9042 19.2833 13 19 13H15C14.7167 13 14.4792 12.9042 14.2875 12.7125C14.0958 12.5208 14 12.2833 14 12ZM0 5V1C0 0.716667 0.0958333 0.479167 0.2875 0.2875C0.479167 0.0958333 0.716667 0 1 0H5C5.28333 0 5.52083 0.0958333 5.7125 0.2875C5.90417 0.479167 6 0.716667 6 1V5C6 5.28333 5.90417 5.52083 5.7125 5.7125C5.52083 5.90417 5.28333 6 5 6H1C0.716667 6 0.479167 5.90417 0.2875 5.7125C0.0958333 5.52083 0 5.28333 0 5ZM7 5V1C7 0.716667 7.09583 0.479167 7.2875 0.2875C7.47917 0.0958333 7.71667 0 8 0H12C12.2833 0 12.5208 0.0958333 12.7125 0.2875C12.9042 0.479167 13 0.716667 13 1V5C13 5.28333 12.9042 5.52083 12.7125 5.7125C12.5208 5.90417 12.2833 6 12 6H8C7.71667 6 7.47917 5.90417 7.2875 5.7125C7.09583 5.52083 7 5.28333 7 5ZM14 5V1C14 0.716667 14.0958 0.479167 14.2875 0.2875C14.4792 0.0958333 14.7167 0 15 0H19C19.2833 0 19.5208 0.0958333 19.7125 0.2875C19.9042 0.479167 20 0.716667 20 1V5C20 5.28333 19.9042 5.52083 19.7125 5.7125C19.5208 5.90417 19.2833 6 19 6H15C14.7167 6 14.4792 5.90417 14.2875 5.7125C14.0958 5.52083 14 5.28333 14 5ZM2 18H4V16H2V18ZM9 18H11V16H9V18ZM16 18H18V16H16V18ZM2 11H4V9H2V11ZM9 11H11V9H9V11ZM16 11H18V9H16V11ZM9 4H11V2H9V4ZM16 4H18V2H16V4Z" fill="#BB8B05"/>
</svg>
